<?xml version="1.0" standalone="no"?>
<!DOCTYPE svg PUBLIC "-//W3C//DTD SVG 20010904//EN"
 "http://www.w3.org/TR/2001/REC-SVG-20010904/DTD/svg10.dtd">
<svg version="1.0" xmlns="http://www.w3.org/2000/svg"
 width="150.000000pt" height="150.000000pt" viewBox="0 0 150.000000 150.000000"
 preserveAspectRatio="xMidYMid meet">
<metadata>
Created by potrace 1.11, written by Peter Selinger 2001-2013
</metadata>
<g transform="translate(0.000000,150.000000) scale(0.100000,-0.100000)"
fill="#000000" stroke="none">
<path d="M0 750 l0 -750 750 0 750 0 0 750 0 750 -750 0 -750 0 0 -750z m1016
623 c-8 -21 -57 -148 -110 -283 -53 -135 -96 -250 -96 -257 0 -9 33 -13 118
-15 l118 -3 -289 -358 c-159 -197 -291 -357 -293 -354 -2 2 46 130 106 285 61
155 110 284 110 287 0 3 -54 5 -120 5 -66 0 -120 2 -120 5 0 7 580 725 585
725 2 0 -2 -17 -9 -37z"/>
</g>
</svg>
